<svg width="19" height="18" viewBox="0 0 19 18" fill="none" xmlns="http://www.w3.org/2000/svg">
<path d="M2.00004 17.5002C1.54171 17.5002 1.14935 17.337 0.822957 17.0106C0.496569 16.6842 0.333374 16.2918 0.333374 15.8335V5.8335C0.333374 5.37516 0.496569 4.9828 0.822957 4.65641C1.14935 4.33002 1.54171 4.16683 2.00004 4.16683H4.62504L6.16671 2.50016H11.1667V4.16683H6.89587L5.37504 5.8335H2.00004V15.8335H15.3334V8.3335H17V15.8335C17 16.2918 16.8368 16.6842 16.5105 17.0106C16.1841 17.337 15.7917 17.5002 15.3334 17.5002H2.00004ZM15.3334 5.8335V4.16683H13.6667V2.50016H15.3334V0.833496H17V2.50016H18.6667V4.16683H17V5.8335H15.3334ZM8.66671 14.5835C9.70837 14.5835 10.5938 14.2189 11.323 13.4897C12.0521 12.7606 12.4167 11.8752 12.4167 10.8335C12.4167 9.79183 12.0521 8.90641 11.323 8.17725C10.5938 7.44808 9.70837 7.0835 8.66671 7.0835C7.62504 7.0835 6.73962 7.44808 6.01046 8.17725C5.28129 8.90641 4.91671 9.79183 4.91671 10.8335C4.91671 11.8752 5.28129 12.7606 6.01046 13.4897C6.73962 14.2189 7.62504 14.5835 8.66671 14.5835ZM8.66671 12.9168C8.08337 12.9168 7.59032 12.7154 7.18754 12.3127C6.78476 11.9099 6.58337 11.4168 6.58337 10.8335C6.58337 10.2502 6.78476 9.75711 7.18754 9.35433C7.59032 8.95155 8.08337 8.75016 8.66671 8.75016C9.25004 8.75016 9.7431 8.95155 10.1459 9.35433C10.5487 9.75711 10.75 10.2502 10.75 10.8335C10.75 11.4168 10.5487 11.9099 10.1459 12.3127C9.7431 12.7154 9.25004 12.9168 8.66671 12.9168Z" fill="#6B4EAE"/>
</svg>
