<svg width="20" height="20" viewBox="0 0 20 20" fill="none" xmlns="http://www.w3.org/2000/svg">
<mask id="mask0_2062_26741" style="mask-type:alpha" maskUnits="userSpaceOnUse" x="0" y="0" width="20" height="20">
<rect width="20" height="20" fill="#6B4EAE"/>
</mask>
<g mask="url(#mask0_2062_26741)">
<path d="M9.16663 11.6665H10.8333V9.1665H13.3333V7.49984H10.8333V4.99984H9.16663V7.49984H6.66663V9.1665H9.16663V11.6665ZM1.66663 18.3332V3.33317C1.66663 2.87484 1.82982 2.48248 2.15621 2.15609C2.4826 1.8297 2.87496 1.6665 3.33329 1.6665H16.6666C17.125 1.6665 17.5173 1.8297 17.8437 2.15609C18.1701 2.48248 18.3333 2.87484 18.3333 3.33317V13.3332C18.3333 13.7915 18.1701 14.1839 17.8437 14.5103C17.5173 14.8366 17.125 14.9998 16.6666 14.9998H4.99996L1.66663 18.3332ZM4.29163 13.3332H16.6666V3.33317H3.33329V14.2707L4.29163 13.3332Z" fill="#6B4EAE"/>
</g>
</svg>
