<svg width="20" height="16" viewBox="0 0 20 16" fill="none" xmlns="http://www.w3.org/2000/svg">
<path d="M0.833374 15.5V11.3333H2.50004V13.8333H5.00004V15.5H0.833374ZM15 15.5V13.8333H17.5V11.3333H19.1667V15.5H15ZM3.33337 13V3H5.00004V13H3.33337ZM5.83337 13V3H6.66671V13H5.83337ZM8.33337 13V3H10V13H8.33337ZM10.8334 13V3H13.3334V13H10.8334ZM14.1667 13V3H15V13H14.1667ZM15.8334 13V3H16.6667V13H15.8334ZM0.833374 4.66667V0.5H5.00004V2.16667H2.50004V4.66667H0.833374ZM17.5 4.66667V2.16667H15V0.5H19.1667V4.66667H17.5Z" fill="white"/>
</svg>
