<svg width="14" height="22" viewBox="0 0 14 22" fill="none" xmlns="http://www.w3.org/2000/svg">
<path d="M1.5 22L4.3 7.9L2.5 8.6V12H0.5V7.3L5.55 5.15C5.78333 5.05 6.02917 4.99167 6.2875 4.975C6.54583 4.95833 6.79167 4.99167 7.025 5.075C7.25833 5.15833 7.47917 5.275 7.6875 5.425C7.89583 5.575 8.06667 5.76667 8.2 6L9.2 7.6C9.63333 8.3 10.2208 8.875 10.9625 9.325C11.7042 9.775 12.55 10 13.5 10V12C12.3333 12 11.2917 11.7583 10.375 11.275C9.45833 10.7917 8.675 10.175 8.025 9.425L7.4 12.5L9.5 14.5V22H7.5V15.5L5.4 13.9L3.6 22H1.5ZM8 4.5C7.45 4.5 6.97917 4.30417 6.5875 3.9125C6.19583 3.52083 6 3.05 6 2.5C6 1.95 6.19583 1.47917 6.5875 1.0875C6.97917 0.695833 7.45 0.5 8 0.5C8.55 0.5 9.02083 0.695833 9.4125 1.0875C9.80417 1.47917 10 1.95 10 2.5C10 3.05 9.80417 3.52083 9.4125 3.9125C9.02083 4.30417 8.55 4.5 8 4.5Z" fill="white"/>
</svg>
