<svg width="44" height="44" viewBox="0 0 44 44" fill="none" xmlns="http://www.w3.org/2000/svg">
<path d="M0 0H44V44H11C4.92487 44 0 39.0751 0 33V0Z" fill="#6B4EAE"/>
<mask id="mask0_2062_26824" style="mask-type:alpha" maskUnits="userSpaceOnUse" x="9" y="10" width="25" height="24">
<rect x="9.5" y="10" width="24" height="24" fill="#6B4EAE"/>
</mask>
<g mask="url(#mask0_2062_26824)">
<path d="M17.5 33L20.3 18.9L18.5 19.6V23H16.5V18.3L21.55 16.15C21.7833 16.05 22.0292 15.9917 22.2875 15.975C22.5458 15.9583 22.7917 15.9917 23.025 16.075C23.2583 16.1583 23.4792 16.275 23.6875 16.425C23.8958 16.575 24.0667 16.7667 24.2 17L25.2 18.6C25.6333 19.3 26.2208 19.875 26.9625 20.325C27.7042 20.775 28.55 21 29.5 21V23C28.3333 23 27.2917 22.7583 26.375 22.275C25.4583 21.7917 24.675 21.175 24.025 20.425L23.4 23.5L25.5 25.5V33H23.5V26.5L21.4 24.9L19.6 33H17.5ZM24 15.5C23.45 15.5 22.9792 15.3042 22.5875 14.9125C22.1958 14.5208 22 14.05 22 13.5C22 12.95 22.1958 12.4792 22.5875 12.0875C22.9792 11.6958 23.45 11.5 24 11.5C24.55 11.5 25.0208 11.6958 25.4125 12.0875C25.8042 12.4792 26 12.95 26 13.5C26 14.05 25.8042 14.5208 25.4125 14.9125C25.0208 15.3042 24.55 15.5 24 15.5Z" fill="white"/>
</g>
</svg>
