<svg width="44" height="44" viewBox="0 0 44 44" fill="none" xmlns="http://www.w3.org/2000/svg">
<path d="M0 0H33C39.0751 0 44 4.92487 44 11V44H0V0Z" fill="#6B4EAE"/>
<mask id="mask0_2062_26828" style="mask-type:alpha" maskUnits="userSpaceOnUse" x="12" y="12" width="20" height="20">
<rect x="12" y="12" width="20" height="20" fill="#D9D9D9"/>
</mask>
<g mask="url(#mask0_2062_26828)">
<path d="M12.8334 29.5V25.3333H14.5V27.8333H17V29.5H12.8334ZM27 29.5V27.8333H29.5V25.3333H31.1667V29.5H27ZM15.3334 27V17H17V27H15.3334ZM17.8334 27V17H18.6667V27H17.8334ZM20.3334 27V17H22V27H20.3334ZM22.8334 27V17H25.3334V27H22.8334ZM26.1667 27V17H27V27H26.1667ZM27.8334 27V17H28.6667V27H27.8334ZM12.8334 18.6667V14.5H17V16.1667H14.5V18.6667H12.8334ZM29.5 18.6667V16.1667H27V14.5H31.1667V18.6667H29.5Z" fill="white"/>
</g>
</svg>
