<svg width="44" height="34" viewBox="0 0 44 34" fill="none" xmlns="http://www.w3.org/2000/svg">
<rect width="44" height="34" rx="6" fill="#FACE45"/>
<path d="M21.2109 15.8359V17.75C21.2109 18.625 21.1224 19.3724 20.9453 19.9922C20.7682 20.612 20.513 21.1198 20.1797 21.5156C19.8464 21.9062 19.4479 22.1953 18.9844 22.3828C18.5208 22.5651 18.0052 22.6562 17.4375 22.6562C16.9844 22.6562 16.5625 22.599 16.1719 22.4844C15.7812 22.3646 15.4297 22.1823 15.1172 21.9375C14.8099 21.6875 14.5443 21.3698 14.3203 20.9844C14.1016 20.599 13.9323 20.138 13.8125 19.6016C13.6979 19.0651 13.6406 18.4479 13.6406 17.75V15.8359C13.6406 14.9609 13.7292 14.2161 13.9062 13.6016C14.0885 12.987 14.3464 12.4844 14.6797 12.0938C15.013 11.7031 15.4115 11.4193 15.875 11.2422C16.3385 11.0599 16.8542 10.9688 17.4219 10.9688C17.8802 10.9688 18.3021 11.026 18.6875 11.1406C19.0781 11.2552 19.4271 11.4349 19.7344 11.6797C20.0469 11.9193 20.3125 12.2318 20.5312 12.6172C20.75 12.9974 20.9167 13.4557 21.0312 13.9922C21.151 14.5234 21.2109 15.138 21.2109 15.8359ZM19.1484 18.0312V15.5469C19.1484 15.1094 19.1224 14.7292 19.0703 14.4062C19.0234 14.0781 18.9531 13.7995 18.8594 13.5703C18.7656 13.3411 18.6484 13.1562 18.5078 13.0156C18.3672 12.8698 18.2057 12.763 18.0234 12.6953C17.8411 12.6276 17.6406 12.5938 17.4219 12.5938C17.151 12.5938 16.9089 12.6484 16.6953 12.7578C16.4818 12.862 16.3021 13.0286 16.1562 13.2578C16.0104 13.487 15.8984 13.7917 15.8203 14.1719C15.7474 14.5469 15.7109 15.0052 15.7109 15.5469V18.0312C15.7109 18.4688 15.7344 18.8516 15.7812 19.1797C15.8333 19.5078 15.9062 19.7891 16 20.0234C16.099 20.2578 16.2161 20.4505 16.3516 20.6016C16.4922 20.7474 16.6536 20.8568 16.8359 20.9297C17.0182 20.9974 17.2188 21.0312 17.4375 21.0312C17.7135 21.0312 17.9557 20.9766 18.1641 20.8672C18.3776 20.7578 18.5573 20.5859 18.7031 20.3516C18.849 20.112 18.9583 19.8021 19.0312 19.4219C19.1094 19.0365 19.1484 18.5729 19.1484 18.0312ZM30.5234 20.875V22.5H22.8203V21.1094L26.5156 17.1172C26.901 16.6797 27.2057 16.2995 27.4297 15.9766C27.6536 15.6536 27.8125 15.362 27.9062 15.1016C28.0052 14.8359 28.0547 14.5833 28.0547 14.3438C28.0547 13.9948 27.9922 13.6901 27.8672 13.4297C27.7422 13.1641 27.5599 12.9583 27.3203 12.8125C27.0859 12.6667 26.7969 12.5938 26.4531 12.5938C26.0729 12.5938 25.7474 12.6823 25.4766 12.8594C25.2109 13.0312 25.0078 13.2708 24.8672 13.5781C24.7318 13.8854 24.6641 14.237 24.6641 14.6328H22.5938C22.5938 13.9609 22.75 13.349 23.0625 12.7969C23.375 12.2396 23.8229 11.7943 24.4062 11.4609C24.9896 11.1276 25.6823 10.9609 26.4844 10.9609C27.2656 10.9609 27.9271 11.0911 28.4688 11.3516C29.0104 11.6068 29.4219 11.9714 29.7031 12.4453C29.9844 12.9193 30.125 13.4844 30.125 14.1406C30.125 14.5052 30.0651 14.8646 29.9453 15.2188C29.8255 15.5729 29.6562 15.9245 29.4375 16.2734C29.224 16.6172 28.9688 16.9661 28.6719 17.3203C28.375 17.6745 28.0443 18.0365 27.6797 18.4062L25.4609 20.875H30.5234Z" fill="#1E293B"/>
</svg>
