<svg width="44" height="44" viewBox="0 0 44 44" fill="none" xmlns="http://www.w3.org/2000/svg">
<path d="M0 11C0 4.92487 4.92487 0 11 0H44V33C44 39.0751 39.0751 44 33 44H0V11Z" fill="#FACE45" fill-opacity="0.25"/>
<path d="M21.1431 20.8184V22.4443C21.1431 23.3184 21.0649 24.0557 20.9087 24.6562C20.7524 25.2568 20.5278 25.7402 20.2349 26.1064C19.9419 26.4727 19.5879 26.7388 19.1729 26.9048C18.7627 27.0659 18.2988 27.1465 17.7812 27.1465C17.3711 27.1465 16.9927 27.0952 16.646 26.9927C16.2993 26.8901 15.9868 26.7266 15.7085 26.502C15.4351 26.2725 15.2007 25.9746 15.0054 25.6084C14.8101 25.2422 14.6611 24.7979 14.5586 24.2754C14.4561 23.7529 14.4048 23.1426 14.4048 22.4443V20.8184C14.4048 19.9443 14.4829 19.2119 14.6392 18.6211C14.8003 18.0303 15.0273 17.5566 15.3203 17.2002C15.6133 16.8389 15.9648 16.5801 16.375 16.4238C16.79 16.2676 17.2539 16.1895 17.7666 16.1895C18.1816 16.1895 18.5625 16.2407 18.9092 16.3433C19.2607 16.4409 19.5732 16.5996 19.8467 16.8193C20.1201 17.0342 20.3521 17.3223 20.5425 17.6836C20.7378 18.04 20.8867 18.4771 20.9893 18.9946C21.0918 19.5122 21.1431 20.1201 21.1431 20.8184ZM19.7808 22.6641V20.5913C19.7808 20.1128 19.7515 19.6929 19.6929 19.3315C19.6392 18.9653 19.5586 18.6528 19.4512 18.394C19.3438 18.1353 19.207 17.9253 19.041 17.7642C18.8799 17.603 18.6919 17.4858 18.4771 17.4126C18.2671 17.3345 18.0303 17.2954 17.7666 17.2954C17.4443 17.2954 17.1587 17.3564 16.9097 17.4785C16.6606 17.5957 16.4507 17.7837 16.2798 18.0425C16.1138 18.3013 15.9868 18.6406 15.8989 19.0605C15.811 19.4805 15.7671 19.9907 15.7671 20.5913V22.6641C15.7671 23.1426 15.7939 23.5649 15.8477 23.9312C15.9062 24.2974 15.9917 24.6147 16.104 24.8833C16.2163 25.147 16.353 25.3643 16.5142 25.5352C16.6753 25.7061 16.8608 25.833 17.0708 25.916C17.2856 25.9941 17.5225 26.0332 17.7812 26.0332C18.1133 26.0332 18.4038 25.9697 18.6528 25.8428C18.9019 25.7158 19.1094 25.5181 19.2754 25.2495C19.4463 24.9761 19.5732 24.627 19.6562 24.2021C19.7393 23.7725 19.7808 23.2598 19.7808 22.6641ZM27.3394 16.2773V27H25.9844V17.9692L23.2524 18.9653V17.7422L27.127 16.2773H27.3394Z" fill="#353535"/>
</svg>
