<svg width="40" height="34" viewBox="0 0 40 34" fill="none" xmlns="http://www.w3.org/2000/svg">
<rect width="40" height="34" rx="6" fill="#FACE45"/>
<path d="M19.2109 15.8359V17.75C19.2109 18.625 19.1224 19.3724 18.9453 19.9922C18.7682 20.612 18.513 21.1198 18.1797 21.5156C17.8464 21.9062 17.4479 22.1953 16.9844 22.3828C16.5208 22.5651 16.0052 22.6562 15.4375 22.6562C14.9844 22.6562 14.5625 22.599 14.1719 22.4844C13.7812 22.3646 13.4297 22.1823 13.1172 21.9375C12.8099 21.6875 12.5443 21.3698 12.3203 20.9844C12.1016 20.599 11.9323 20.138 11.8125 19.6016C11.6979 19.0651 11.6406 18.4479 11.6406 17.75V15.8359C11.6406 14.9609 11.7292 14.2161 11.9062 13.6016C12.0885 12.987 12.3464 12.4844 12.6797 12.0938C13.013 11.7031 13.4115 11.4193 13.875 11.2422C14.3385 11.0599 14.8542 10.9688 15.4219 10.9688C15.8802 10.9688 16.3021 11.026 16.6875 11.1406C17.0781 11.2552 17.4271 11.4349 17.7344 11.6797C18.0469 11.9193 18.3125 12.2318 18.5312 12.6172C18.75 12.9974 18.9167 13.4557 19.0312 13.9922C19.151 14.5234 19.2109 15.138 19.2109 15.8359ZM17.1484 18.0312V15.5469C17.1484 15.1094 17.1224 14.7292 17.0703 14.4062C17.0234 14.0781 16.9531 13.7995 16.8594 13.5703C16.7656 13.3411 16.6484 13.1562 16.5078 13.0156C16.3672 12.8698 16.2057 12.763 16.0234 12.6953C15.8411 12.6276 15.6406 12.5938 15.4219 12.5938C15.151 12.5938 14.9089 12.6484 14.6953 12.7578C14.4818 12.862 14.3021 13.0286 14.1562 13.2578C14.0104 13.487 13.8984 13.7917 13.8203 14.1719C13.7474 14.5469 13.7109 15.0052 13.7109 15.5469V18.0312C13.7109 18.4688 13.7344 18.8516 13.7812 19.1797C13.8333 19.5078 13.9062 19.7891 14 20.0234C14.099 20.2578 14.2161 20.4505 14.3516 20.6016C14.4922 20.7474 14.6536 20.8568 14.8359 20.9297C15.0182 20.9974 15.2188 21.0312 15.4375 21.0312C15.7135 21.0312 15.9557 20.9766 16.1641 20.8672C16.3776 20.7578 16.5573 20.5859 16.7031 20.3516C16.849 20.112 16.9583 19.8021 17.0312 19.4219C17.1094 19.0365 17.1484 18.5729 17.1484 18.0312ZM26.1328 11.0938V22.5H24.0625V13.5078L21.3203 14.4141V12.7422L25.8984 11.0938H26.1328Z" fill="#1E293B"/>
</svg>
