<svg width="56" height="56" viewBox="0 0 56 56" fill="none" xmlns="http://www.w3.org/2000/svg">
<g filter="url(#filter0_d_2349_23494)">
<rect x="11" y="5" width="34" height="34" rx="17" fill="white" shape-rendering="crispEdges"/>
<mask id="mask0_2349_23494" style="mask-type:alpha" maskUnits="userSpaceOnUse" x="17" y="12" width="21" height="21">
<rect x="17.8386" y="12.1904" width="20" height="20" fill="#D9D9D9"/>
</mask>
<g mask="url(#mask0_2349_23494)">
<path d="M27.0053 28.3778V22.6694L22.0053 19.7736V25.4819L27.0053 28.3778ZM28.672 28.3778L33.672 25.4819V19.7736L28.672 22.6694V28.3778ZM27.0053 30.2944L21.172 26.9403C20.9081 26.7875 20.7032 26.5861 20.5574 26.3361C20.4115 26.0861 20.3386 25.8083 20.3386 25.5028V18.8778C20.3386 18.5722 20.4115 18.2944 20.5574 18.0444C20.7032 17.7944 20.9081 17.593 21.172 17.4403L27.0053 14.0861C27.2692 13.9333 27.547 13.8569 27.8386 13.8569C28.1303 13.8569 28.4081 13.9333 28.672 14.0861L34.5053 17.4403C34.7692 17.593 34.974 17.7944 35.1199 18.0444C35.2657 18.2944 35.3386 18.5722 35.3386 18.8778V25.5028C35.3386 25.8083 35.2657 26.0861 35.1199 26.3361C34.974 26.5861 34.7692 26.7875 34.5053 26.9403L28.672 30.2944C28.4081 30.4472 28.1303 30.5236 27.8386 30.5236C27.547 30.5236 27.2692 30.4472 27.0053 30.2944ZM31.172 19.2944L32.7761 18.3778L27.8386 15.5236L26.2136 16.4611L31.172 19.2944ZM27.8386 21.2319L29.4636 20.2944L24.5261 17.4403L22.9011 18.3778L27.8386 21.2319Z" fill="#FACE45"/>
</g>
</g>
<defs>
<filter id="filter0_d_2349_23494" x="0" y="0" width="56" height="56" filterUnits="userSpaceOnUse" color-interpolation-filters="sRGB">
<feFlood flood-opacity="0" result="BackgroundImageFix"/>
<feColorMatrix in="SourceAlpha" type="matrix" values="0 0 0 0 0 0 0 0 0 0 0 0 0 0 0 0 0 0 127 0" result="hardAlpha"/>
<feMorphology radius="3" operator="dilate" in="SourceAlpha" result="effect1_dropShadow_2349_23494"/>
<feOffset dy="6"/>
<feGaussianBlur stdDeviation="4"/>
<feComposite in2="hardAlpha" operator="out"/>
<feColorMatrix type="matrix" values="0 0 0 0 0.47451 0 0 0 0 0.0431373 0 0 0 0 0.67451 0 0 0 0.05 0"/>
<feBlend mode="normal" in2="BackgroundImageFix" result="effect1_dropShadow_2349_23494"/>
<feBlend mode="normal" in="SourceGraphic" in2="effect1_dropShadow_2349_23494" result="shape"/>
</filter>
</defs>
</svg>
