<svg width="19" height="20" viewBox="0 0 19 20" fill="none" xmlns="http://www.w3.org/2000/svg">
<path d="M14.75 6.25C14.75 4.85761 14.1969 3.52226 13.2123 2.53769C12.2277 1.55312 10.8924 1 9.5 1C8.10761 1 6.77226 1.55312 5.78769 2.53769C4.80312 3.52226 4.25 4.85761 4.25 6.25C4.25 12.375 1.625 14.125 1.625 14.125H17.375C17.375 14.125 14.75 12.375 14.75 6.25Z" stroke="black" stroke-width="2" stroke-linecap="round" stroke-linejoin="round"/>
<path d="M11.0137 17.625C10.8599 17.8902 10.6391 18.1103 10.3734 18.2633C10.1077 18.4164 9.80654 18.4969 9.49996 18.4969C9.19337 18.4969 8.89217 18.4164 8.62651 18.2633C8.36084 18.1103 8.14004 17.8902 7.98621 17.625" stroke="black" stroke-width="2" stroke-linecap="round" stroke-linejoin="round"/>
</svg>
