<svg width="22" height="22" viewBox="0 0 22 22" fill="none" xmlns="http://www.w3.org/2000/svg">
<path d="M14.6842 14.9994H21M17.8421 11.9991V17.9997M19.9474 8.99877V6.99856C19.947 6.6478 19.8495 6.3033 19.6648 5.99962C19.48 5.69595 19.2145 5.44377 18.8947 5.26839L11.5263 1.26798C11.2063 1.09242 10.8432 1 10.4737 1C10.1041 1 9.74109 1.09242 9.42105 1.26798L2.05263 5.26839C1.73291 5.44377 1.46735 5.69595 1.28259 5.99962C1.09783 6.3033 1.00038 6.6478 1 6.99856V14.9994C1.00038 15.3501 1.09783 15.6946 1.28259 15.9983C1.46735 16.302 1.73291 16.5542 2.05263 16.7296L9.42105 20.73C9.74109 20.9055 10.1041 20.9979 10.4737 20.9979C10.8432 20.9979 11.2063 20.9055 11.5263 20.73L13.6316 19.5899M15.2105 8.39871L5.78947 3.23818" stroke="#FACE45" stroke-width="1.5" stroke-linecap="round" stroke-linejoin="round"/>
<path d="M1.30518 5.99854L10.4736 10.999L19.642 5.99854M10.4736 21.0001V10.999" stroke="#FACE45" stroke-width="1.5" stroke-linecap="round" stroke-linejoin="round"/>
</svg>
