<svg width="23" height="26" viewBox="0 0 23 26" fill="none" xmlns="http://www.w3.org/2000/svg">
<path d="M20.125 11.0883C20.125 17.7795 11.5 23.5148 11.5 23.5148C11.5 23.5148 2.875 17.7795 2.875 11.0883C2.875 8.80665 3.7837 6.61846 5.4012 5.00509C7.0187 3.39173 9.21251 2.48535 11.5 2.48535C13.7875 2.48535 15.9813 3.39173 17.5988 5.00509C19.2163 6.61846 20.125 8.80665 20.125 11.0883Z" stroke="#FACE45" stroke-width="2" stroke-linecap="round" stroke-linejoin="round"/>
<path d="M11.5 13.956C13.0878 13.956 14.375 12.6721 14.375 11.0884C14.375 9.50459 13.0878 8.2207 11.5 8.2207C9.91218 8.2207 8.625 9.50459 8.625 11.0884C8.625 12.6721 9.91218 13.956 11.5 13.956Z" stroke="#FACE45" stroke-width="2" stroke-linecap="round" stroke-linejoin="round"/>
</svg>
