<svg width="21" height="21" viewBox="0 0 21 21" fill="none" xmlns="http://www.w3.org/2000/svg">
<mask id="mask0_2349_23519" style="mask-type:alpha" maskUnits="userSpaceOnUse" x="0" y="0" width="21" height="21">
<rect x="0.838623" y="0.19043" width="20" height="20" fill="#D9D9D9"/>
</mask>
<g mask="url(#mask0_2349_23519)">
<path d="M10.0053 16.3778V10.6694L5.00529 7.7736V13.4819L10.0053 16.3778ZM11.672 16.3778L16.672 13.4819V7.7736L11.672 10.6694V16.3778ZM10.0053 18.2944L4.17196 14.9403C3.90807 14.7875 3.70321 14.5861 3.55737 14.3361C3.41154 14.0861 3.33862 13.8083 3.33862 13.5028V6.87777C3.33862 6.57221 3.41154 6.29443 3.55737 6.04443C3.70321 5.79443 3.90807 5.59304 4.17196 5.44027L10.0053 2.0861C10.2692 1.93332 10.547 1.85693 10.8386 1.85693C11.1303 1.85693 11.4081 1.93332 11.672 2.0861L17.5053 5.44027C17.7692 5.59304 17.974 5.79443 18.1199 6.04443C18.2657 6.29443 18.3386 6.57221 18.3386 6.87777V13.5028C18.3386 13.8083 18.2657 14.0861 18.1199 14.3361C17.974 14.5861 17.7692 14.7875 17.5053 14.9403L11.672 18.2944C11.4081 18.4472 11.1303 18.5236 10.8386 18.5236C10.547 18.5236 10.2692 18.4472 10.0053 18.2944ZM14.172 7.29443L15.7761 6.37777L10.8386 3.5236L9.21362 4.4611L14.172 7.29443ZM10.8386 9.23193L12.4636 8.29443L7.52612 5.44027L5.90112 6.37777L10.8386 9.23193Z" fill="#FACE45"/>
</g>
</svg>
