<svg width="20" height="20" viewBox="0 0 20 20" fill="none" xmlns="http://www.w3.org/2000/svg">
<path d="M8.31258 7.47927C8.72046 7.07136 8.99821 6.55166 9.11073 5.98589C9.22325 5.42012 9.16547 4.83369 8.9447 4.30075C8.72394 3.76782 8.3501 3.31232 7.87047 2.99184C7.39083 2.67137 6.82693 2.50032 6.25008 2.50032C5.67323 2.50032 5.10934 2.67137 4.6297 2.99184C4.15006 3.31232 3.77623 3.76782 3.55546 4.30075C3.3347 4.83369 3.27692 5.42012 3.38944 5.98589C3.50195 6.55166 3.77971 7.07136 4.18758 7.47927L6.25008 9.54177L8.31258 7.47927ZM6.25008 11.8984L3.00842 8.65844C2.36764 8.01736 1.93133 7.20069 1.75466 6.31167C1.57799 5.42265 1.66888 4.5012 2.01584 3.66383C2.36281 2.82646 2.95027 2.11077 3.70394 1.60724C4.45762 1.10371 5.34368 0.834961 6.25008 0.834961C7.15649 0.834961 8.04254 1.10371 8.79622 1.60724C9.5499 2.11077 10.1374 2.82646 10.4843 3.66383C10.8313 4.5012 10.9222 5.42265 10.7455 6.31167C10.5688 7.20069 10.1325 8.01736 9.49175 8.65844L6.25008 11.9001V11.8984ZM6.25008 6.66677C5.91856 6.66677 5.60062 6.53508 5.3662 6.30066C5.13178 6.06624 5.00008 5.74829 5.00008 5.41677C5.00008 5.08525 5.13178 4.76731 5.3662 4.53289C5.60062 4.29847 5.91856 4.16677 6.25008 4.16677C6.5816 4.16677 6.89955 4.29847 7.13397 4.53289C7.36839 4.76731 7.50008 5.08525 7.50008 5.41677C7.50008 5.74829 7.36839 6.06624 7.13397 6.30066C6.89955 6.53508 6.5816 6.66677 6.25008 6.66677ZM13.7501 17.0418L15.8126 14.9793C16.2205 14.5714 16.4982 14.0517 16.6107 13.4859C16.7232 12.9201 16.6655 12.3337 16.4447 11.8008C16.2239 11.2678 15.8501 10.8123 15.3705 10.4918C14.8908 10.1714 14.3269 10.0003 13.7501 10.0003C13.1732 10.0003 12.6093 10.1714 12.1297 10.4918C11.6501 10.8123 11.2762 11.2678 11.0555 11.8008C10.8347 12.3337 10.7769 12.9201 10.8894 13.4859C11.002 14.0517 11.2797 14.5714 11.6876 14.9793L13.7501 17.0418ZM16.9917 16.1584L13.7501 19.3984L10.5084 16.1576C9.86764 15.5165 9.43134 14.6999 9.25466 13.8108C9.07799 12.9218 9.16888 12.0004 9.51584 11.163C9.86281 10.3256 10.4503 9.60994 11.2039 9.10641C11.9576 8.60288 12.8437 8.33413 13.7501 8.33413C14.6565 8.33413 15.5425 8.60288 16.2962 9.10641C17.0499 9.60994 17.6374 10.3256 17.9843 11.163C18.3313 12.0004 18.4222 12.9218 18.2455 13.8108C18.0688 14.6999 17.6325 15.5165 16.9917 16.1576V16.1584ZM13.7501 14.1668C13.4186 14.1668 13.1006 14.0351 12.8662 13.8007C12.6318 13.5662 12.5001 13.2483 12.5001 12.9168C12.5001 12.5853 12.6318 12.2673 12.8662 12.0329C13.1006 11.7985 13.4186 11.6668 13.7501 11.6668C14.0816 11.6668 14.3995 11.7985 14.634 12.0329C14.8684 12.2673 15.0001 12.5853 15.0001 12.9168C15.0001 13.2483 14.8684 13.5662 14.634 13.8007C14.3995 14.0351 14.0816 14.1668 13.7501 14.1668Z" fill="#FACE45"/>
</svg>
