<svg width="21" height="21" viewBox="0 0 21 21" fill="none" xmlns="http://www.w3.org/2000/svg">
<mask id="mask0_2349_23510" style="mask-type:alpha" maskUnits="userSpaceOnUse" x="0" y="0" width="21" height="21">
<rect x="0.233521" y="0.17334" width="20" height="20" fill="#D9D9D9"/>
</mask>
<g mask="url(#mask0_2349_23510)">
<path d="M10.2335 18.5065C9.0807 18.5065 7.99737 18.2878 6.98348 17.8503C5.96959 17.4128 5.08765 16.819 4.33765 16.069C3.58765 15.319 2.9939 14.4371 2.5564 13.4232C2.1189 12.4093 1.90015 11.326 1.90015 10.1732C1.90015 9.0204 2.1189 7.93707 2.5564 6.92318C2.9939 5.90929 3.58765 5.02734 4.33765 4.27734C5.08765 3.52734 5.96959 2.93359 6.98348 2.49609C7.99737 2.05859 9.0807 1.83984 10.2335 1.83984C11.1363 1.83984 11.9904 1.97179 12.796 2.23568C13.6015 2.49957 14.3446 2.86762 15.0251 3.33984L13.8168 4.56901C13.289 4.23568 12.7265 3.97526 12.1293 3.78776C11.5321 3.60026 10.9001 3.50651 10.2335 3.50651C8.38626 3.50651 6.81334 4.15582 5.51473 5.45443C4.21612 6.75304 3.56681 8.32595 3.56681 10.1732C3.56681 12.0204 4.21612 13.5933 5.51473 14.8919C6.81334 16.1905 8.38626 16.8398 10.2335 16.8398C12.0807 16.8398 13.6536 16.1905 14.9522 14.8919C16.2508 13.5933 16.9001 12.0204 16.9001 10.1732C16.9001 9.92318 16.8863 9.67318 16.8585 9.42318C16.8307 9.17318 16.789 8.93012 16.7335 8.69401L18.0876 7.33984C18.2404 7.78429 18.3585 8.24262 18.4418 8.71484C18.5251 9.18707 18.5668 9.67318 18.5668 10.1732C18.5668 11.326 18.3481 12.4093 17.9106 13.4232C17.4731 14.4371 16.8793 15.319 16.1293 16.069C15.3793 16.819 14.4974 17.4128 13.4835 17.8503C12.4696 18.2878 11.3863 18.5065 10.2335 18.5065ZM9.06681 14.0065L5.52515 10.4648L6.69181 9.29818L9.06681 11.6732L17.4001 3.31901L18.5668 4.48568L9.06681 14.0065Z" fill="#FACE45"/>
</g>
</svg>
