<svg width="18" height="18" viewBox="0 0 18 18" fill="none" xmlns="http://www.w3.org/2000/svg">
<path d="M3.5 2.17725V1.68991V1.12591C3.5 0.893843 3.40781 0.671284 3.24372 0.50719C3.07962 0.343096 2.85706 0.250909 2.625 0.250909C2.39293 0.250909 2.17037 0.343096 2.00628 0.50719C1.84219 0.671284 1.75 0.893843 1.75 1.12591V4.87591C1.75 5.35883 2.14207 5.7509 2.625 5.7509H4.875C5.10706 5.7509 5.32962 5.65872 5.49372 5.49462C5.65781 5.33053 5.75 5.10797 5.75 4.87591C5.75 4.64384 5.65781 4.42128 5.49371 4.25719C5.32962 4.09309 5.10706 4.00091 4.875 4.00091H4.7565H4.05116L4.59906 3.55671C5.84367 2.54765 7.39794 1.99822 9.00021 2.00091M3.5 2.17725L0.25 9.00088C0.250006 8.76882 0.342193 8.54627 0.506281 8.38218C0.670375 8.21809 0.892935 8.1259 1.125 8.1259C1.35706 8.1259 1.57962 8.21809 1.74372 8.38218C1.90781 8.54628 2 8.76884 2 9.0009C2 10.3854 2.41054 11.7387 3.17971 12.8899C3.94888 14.041 5.04213 14.9382 6.32121 15.4681C7.60029 15.9979 9.00776 16.1365 10.3656 15.8664C11.7235 15.5963 12.9708 14.9296 13.9497 13.9506C14.9287 12.9717 15.5954 11.7244 15.8655 10.3665C16.1356 9.00867 15.997 7.6012 15.4671 6.32212C14.9373 5.04304 14.0401 3.94979 12.889 3.18062C11.7379 2.41149 10.3846 2.00095 9.00021 2.00091M3.5 2.17725L3.89583 1.89297M3.5 2.17725L3.89583 1.89297M9.00021 2.00091C9.00028 2.00091 9.00035 2.00091 9.00042 2.00091L8.99999 2.25091V2.00091C9.00007 2.00091 9.00014 2.00091 9.00021 2.00091ZM3.89583 1.89297C5.4905 0.747697 7.42401 0.172016 9.38542 0.258497C11.3468 0.344979 13.2222 1.0886 14.7099 2.36977C16.1975 3.65094 17.2111 5.39522 17.5876 7.3221C17.9641 9.24898 17.6816 11.2465 16.7856 12.9934C15.8895 14.7403 14.432 16.1351 12.6474 16.9535C10.8628 17.7719 8.85478 17.9664 6.94631 17.5056C5.03784 17.0448 3.33979 15.9555 2.12523 14.413C0.910685 12.8704 0.250203 10.9642 0.25 9.0009L3.89583 1.89297ZM9.49999 8.2509V8.5009H9.74999H10.875C11.1071 8.5009 11.3296 8.59309 11.4937 8.75718C11.6578 8.92128 11.75 9.14384 11.75 9.3759C11.75 9.60797 11.6578 9.83052 11.4937 9.99462C11.3296 10.1587 11.1071 10.2509 10.875 10.2509H8.62499C8.14207 10.2509 7.75 9.85883 7.75 9.3759V5.6259C7.75 5.39384 7.84218 5.17128 8.00628 5.00719C8.17037 4.84309 8.39293 4.75091 8.62499 4.75091C8.85706 4.75091 9.07962 4.84309 9.24371 5.00719C9.40781 5.17128 9.49999 5.39384 9.49999 5.62591V8.2509Z" fill="#FACE45" stroke="#FACE45" stroke-width="0.5"/>
</svg>
